<?xml version="1.0" standalone="no"?><!DOCTYPE svg PUBLIC "-//W3C//DTD SVG 1.1//EN" "http://www.w3.org/Graphics/SVG/1.1/DTD/svg11.dtd"><svg t="1557826538801" class="icon" style="" viewBox="0 0 1024 1024" version="1.1" xmlns="http://www.w3.org/2000/svg" p-id="757" xmlns:xlink="http://www.w3.org/1999/xlink" width="200" height="200"><defs><style type="text/css"></style></defs><path d="M836 390c-62.3 0-113.9 46.1-122.7 106H607.8c-1.4-28.7-11.6-55-28.1-76.3l52.2-52.2c6.1 2.9 12.9 4.6 20 4.6 25.4 0 46-20.6 46-46s-20.6-46-46-46-46 20.6-46 46c0 8.8 2.4 16.9 6.7 23.9l-50.8 50.8c-20.9-18.4-47.6-30.4-76.9-33.1V245.4c36.7-4.7 65-36 65-73.9 0-41.1-33.4-74.5-74.5-74.5S401 130.4 401 171.5c0 35.5 24.8 65.1 58 72.6v123.5c-30.4 3-57.9 16.1-79.1 35.9l-26.7-26.7c11.7-14.3 18.8-32.5 18.8-52.3 0-45.5-37-82.5-82.5-82.5S207 279 207 324.5s37 82.5 82.5 82.5c16.3 0 31.4-4.7 44.2-12.9l29 29c-15 20.7-24.3 45.7-25.5 72.9h-126c-5.5-35.7-36.4-63-73.6-63-41.2 0-74.6 33.4-74.6 74.5S96.4 582 137.5 582c36.2 0 66.3-25.8 73.1-60h127.8c3.8 26.6 15.4 50.7 32.3 69.9l-52.3 52.3c-6.4-3.4-13.6-5.3-21.4-5.3-25.4 0-46 20.6-46 46s20.6 46 46 46 46-20.6 46-46c0-8.2-2.2-16-6-22.6l52.6-52.6c19.6 15.1 43.4 25 69.3 27.6v148.5c-33.2 7.5-58 37.2-58 72.6 0 41.1 33.4 74.5 74.5 74.5s74.5-33.4 74.5-74.5c0-37.9-28.3-69.2-65-73.9V637.4c24.9-2.3 47.8-11.3 66.9-25.1l50.6 50.6c-6 9.8-9.5 21.3-9.5 33.6 0 35.6 28.9 64.5 64.5 64.5s64.5-28.9 64.5-64.5-28.8-64.5-64.4-64.5c-13.9 0-26.7 4.4-37.2 11.9l-48.8-48.8c18.5-19.7 31.1-45 35.2-73.1h105.7c4.1 64.7 58 116 123.7 116 68.4 0 124-55.6 124-124S904.4 390 836 390z m-546.5-23c-23.4 0-42.5-19.1-42.5-42.5s19.1-42.5 42.5-42.5 42.5 19.1 42.5 42.5-19.1 42.5-42.5 42.5z m368 305c13.5 0 24.5 11 24.5 24.5S671 721 657.5 721 633 710 633 696.5s11-24.5 24.5-24.5zM836 574c-33.1 0-60-26.9-60-60s26.9-60 60-60 60 26.9 60 60-26.9 60-60 60z" p-id="758"></path></svg>