<?xml version="1.0" standalone="no"?><!DOCTYPE svg PUBLIC "-//W3C//DTD SVG 1.1//EN" "http://www.w3.org/Graphics/SVG/1.1/DTD/svg11.dtd"><svg t="1552635862150" class="icon" style="" viewBox="0 0 1024 1024" version="1.1" xmlns="http://www.w3.org/2000/svg" p-id="5392" xmlns:xlink="http://www.w3.org/1999/xlink" width="200" height="200"><defs><style type="text/css"></style></defs><path d="M973.949 552.474L531.025 735.329c-4.063 4.063-12.191 4.063-16.253 4.063-8.124 0-12.19 0-16.254-4.063L55.594 552.474c-16.256-8.128-28.444-24.386-28.444-40.638 0-24.38 20.316-44.695 44.703-44.695 8.127 0 12.188 0 16.251 4.063l422.603 174.73 422.602-174.73c4.061-4.063 12.196-4.063 16.257-4.063 24.381 0 44.697 20.316 44.697 44.695 8.128 20.32-4.063 36.575-20.314 40.638z" p-id="5393"></path><path d="M971.176 357.422L528.253 540.285c-4.061 4.061-12.189 4.061-16.252 4.061-8.125 0-12.19 0-16.253-4.061L52.824 357.422c-16.254-8.126-28.443-24.38-28.443-40.633 0-16.252 12.187-36.575 28.443-40.636L495.747 93.297c4.063-4.064 12.189-4.064 16.252-4.064 8.128 0 12.191 0 16.253 4.064l442.922 182.856c16.254 8.126 28.444 24.384 28.444 40.636 0.003 16.253-12.186 32.507-28.442 40.633zM77.208 662.184c8.127 0 12.188 0 16.251 4.065l422.605 174.73 422.601-174.728c4.064-4.065 12.197-4.065 16.258-4.065 24.379 0 44.696 20.317 44.696 44.703 0 20.314-12.189 36.567-28.445 40.63l-442.92 182.855c-4.064 4.07-12.19 4.07-16.251 4.07-8.13 0-12.193 0-16.255-4.07L52.823 747.519c-16.253-8.127-28.442-24.38-28.442-40.63 8.126-24.387 28.442-44.705 52.827-44.705z" p-id="5394"></path></svg>