<?xml version="1.0" standalone="no"?><!DOCTYPE svg PUBLIC "-//W3C//DTD SVG 1.1//EN" "http://www.w3.org/Graphics/SVG/1.1/DTD/svg11.dtd"><svg t="1545717296740" class="icon" style="" viewBox="0 0 1024 1024" version="1.1" xmlns="http://www.w3.org/2000/svg" p-id="11222" xmlns:xlink="http://www.w3.org/1999/xlink" width="200" height="200"><defs><style type="text/css"></style></defs><path d="M936.533333 354.133333c-4.266667-6.4-14.933333-17.066667-29.866666-32-44.8-46.933333-117.333333-128-151.466667-162.133333-12.8-12.8-29.866667-29.866667-59.733333-29.866667H330.666667c-14.933333 0-36.266667 4.266667-61.866667 29.866667-19.2 21.333333-51.2 55.466667-83.2 87.466667-38.4 42.666667-78.933333 85.333333-98.133333 104.533333-32 34.133333-32 81.066667-2.133334 123.733333l2.133334 2.133334c36.266667 38.4 115.2 123.733333 206.933333 219.733333 49.066667 53.333333 102.4 108.8 157.866667 166.4 25.6 27.733333 44.8 29.866667 59.733333 29.866667 17.066667 0 34.133333-4.266667 59.733333-29.866667 53.333333-57.6 106.666667-113.066667 155.733334-166.4 89.6-93.866667 166.4-174.933333 206.933333-219.733333 29.866667-29.866667 36.266667-85.333333 2.133333-123.733334zM704 424.533333l-132.266667 128C554.666667 567.466667 533.333333 576 512 576c-21.333333 0-42.666667-8.533333-59.733333-23.466667l-134.4-128c-8.533333-8.533333-8.533333-21.333333 0-29.866666 8.533333-8.533333 21.333333-8.533333 29.866666 0l134.4 128c17.066667 14.933333 42.666667 14.933333 59.733334 0l132.266666-128c8.533333-8.533333 21.333333-8.533333 29.866667 0s8.533333 21.333333 0 29.866666z" p-id="11223"></path></svg>