<?xml version="1.0" standalone="no"?><!DOCTYPE svg PUBLIC "-//W3C//DTD SVG 1.1//EN" "http://www.w3.org/Graphics/SVG/1.1/DTD/svg11.dtd"><svg t="1564044620577" class="icon" viewBox="0 0 1024 1024" version="1.1" xmlns="http://www.w3.org/2000/svg" p-id="1381" xmlns:xlink="http://www.w3.org/1999/xlink" width="200" height="200"><defs><style type="text/css"></style></defs><path d="M899.6 117c9.9 7.1 13.8 16.7 12 28.5L797.3 831.2c-1.5 8.6-6.3 15.3-14.3 20.1-4.1 2.3-8.8 3.6-13.8 3.6-3.3 0-6.9-0.8-10.7-2.3L556.3 770 448.2 901.8c-5.4 6.9-12.7 10.2-21.9 10.2-3.8 0-7.1-0.6-9.9-1.8-5.6-2.1-10.2-5.5-13.6-10.5-3.4-4.9-5.2-10.3-5.2-16.3V727.7l385.7-472.8-477.2 413-176.3-72.3c-11-4.1-17-12.3-17.8-24.6-0.6-11.9 4.1-20.7 14.3-26.4L869.1 116c4.5-2.7 9.2-4 14.3-4 6 0 11.4 1.7 16.2 5z" p-id="1382"></path></svg>