<?xml version="1.0" standalone="no"?><!DOCTYPE svg PUBLIC "-//W3C//DTD SVG 1.1//EN" "http://www.w3.org/Graphics/SVG/1.1/DTD/svg11.dtd"><svg t="1552013680942" class="icon" style="" viewBox="0 0 1024 1024" version="1.1" xmlns="http://www.w3.org/2000/svg" p-id="8558" xmlns:xlink="http://www.w3.org/1999/xlink" width="200" height="200"><defs><style type="text/css"></style></defs><path d="M716.8 998.4H153.6c-42.496 0-76.8-35.84-76.8-79.872V105.472C76.8 61.44 111.104 25.6 153.6 25.6h563.2c42.496 0 76.8 35.84 76.8 79.872v233.984c0 14.336-11.264 25.6-25.6 25.6s-25.6-11.264-25.6-25.6V105.472c0-15.872-11.264-28.672-25.6-28.672H153.6c-14.336 0-25.6 12.8-25.6 28.672v813.056c0 15.872 11.264 28.672 25.6 28.672h563.2c14.336 0 25.6-12.8 25.6-28.672v-280.576c0-14.336 11.264-25.6 25.6-25.6s25.6 11.264 25.6 25.6v280.576c0 44.032-34.304 79.872-76.8 79.872z" p-id="8559"></path><path d="M563.2 384H307.2c-42.496 0-76.8-34.304-76.8-76.8V256c0-42.496 34.304-76.8 76.8-76.8h256c42.496 0 76.8 34.304 76.8 76.8v51.2c0 42.496-34.304 76.8-76.8 76.8z m-256-153.6c-14.336 0-25.6 11.264-25.6 25.6v51.2c0 14.336 11.264 25.6 25.6 25.6h256c14.336 0 25.6-11.264 25.6-25.6V256c0-14.336-11.264-25.6-25.6-25.6H307.2z" p-id="8560"></path><path d="M153.6 375.296H51.2c-14.336 0-25.6-11.264-25.6-25.6s11.264-25.6 25.6-25.6h102.4c14.336 0 25.6 11.264 25.6 25.6s-11.264 25.6-25.6 25.6z" p-id="8561"></path><path d="M153.6 546.304H51.2c-14.336 0-25.6-11.264-25.6-25.6s11.264-25.6 25.6-25.6h102.4c14.336 0 25.6 11.264 25.6 25.6s-11.264 25.6-25.6 25.6z" p-id="8562"></path><path d="M153.6 716.8H51.2c-14.336 0-25.6-11.264-25.6-25.6s11.264-25.6 25.6-25.6h102.4c14.336 0 25.6 11.264 25.6 25.6s-11.264 25.6-25.6 25.6z" p-id="8563"></path><path d="M512 870.4H409.6c-14.336 0-25.6-11.264-25.6-25.6s11.264-25.6 25.6-25.6h102.4c14.336 0 25.6 11.264 25.6 25.6s-11.264 25.6-25.6 25.6z" p-id="8564"></path><path d="M514.048 840.704l-3.584-142.336c-0.512-16.896 4.608-33.28 14.848-47.104l286.208-393.728a76.7488 76.7488 0 0 1 107.52-16.896l41.472 30.208c34.304 25.088 41.984 73.216 16.896 107.52l-286.208 393.728c-9.728 13.824-24.064 23.552-40.448 28.672l-136.704 39.936z m359.424-563.712c-1.536 0-2.56 0-4.096 0.512-6.656 1.024-12.8 4.608-16.896 10.24l-286.208 393.728a25.6 25.6 0 0 0-5.12 15.872L563.2 773.12l72.704-21.504c5.12-1.536 10.24-5.12 13.312-9.728l286.208-393.728c8.192-11.264 5.632-27.648-5.632-35.84l-41.472-30.208a21.8624 21.8624 0 0 0-14.848-5.12z" p-id="8565"></path><path d="M542.4128 676.7104l29.44-41.8816 119.3984 83.8144-29.3888 41.8816z" p-id="8566"></path></svg>