<?xml version="1.0" standalone="no"?><!DOCTYPE svg PUBLIC "-//W3C//DTD SVG 1.1//EN" "http://www.w3.org/Graphics/SVG/1.1/DTD/svg11.dtd"><svg t="1552013856993" class="icon" style="" viewBox="0 0 1025 1024" version="1.1" xmlns="http://www.w3.org/2000/svg" p-id="11261" xmlns:xlink="http://www.w3.org/1999/xlink" width="200.1953125" height="200"><defs><style type="text/css"></style></defs><path d="M576 768c0-106 86-192 192-192a191.66 191.66 0 0 1 64 10.94V320L576 64H256a64.19 64.19 0 0 0-64 64v768a64.19 64.19 0 0 0 64 64h512c-106 0-192-86-192-192z m0-640l192 192H576z" p-id="11262"></path><path d="M927.5 757.16l-32.24-6.45a10.62 10.62 0 0 1-7.88-6.81q-1.6-4.41-3.58-8.63a10.62 10.62 0 0 1 0.75-10.4l18.24-27.36a10.57 10.57 0 0 0-1.32-13.34l-17.64-17.64a10.57 10.57 0 0 0-13.34-1.32l-27.36 18.24a10.62 10.62 0 0 1-10.4 0.75q-4.22-2-8.63-3.58a10.62 10.62 0 0 1-6.81-7.88l-6.45-32.24a10.57 10.57 0 0 0-10.37-8.5h-25a10.57 10.57 0 0 0-10.37 8.5l-6.45 32.24a10.62 10.62 0 0 1-6.81 7.88q-4.41 1.6-8.63 3.58a10.62 10.62 0 0 1-10.4-0.75l-27.36-18.24a10.57 10.57 0 0 0-13.34 1.32l-17.64 17.64a10.57 10.57 0 0 0-1.32 13.34l18.24 27.36a10.62 10.62 0 0 1 0.75 10.4q-2 4.22-3.58 8.63a10.62 10.62 0 0 1-7.88 6.81l-32.24 6.45a10.57 10.57 0 0 0-8.5 10.37v25a10.57 10.57 0 0 0 8.5 10.37l32.24 6.45a10.62 10.62 0 0 1 7.88 6.81q1.6 4.41 3.58 8.63a10.62 10.62 0 0 1-0.75 10.4l-18.24 27.36a10.57 10.57 0 0 0 1.32 13.34l17.64 17.64a10.57 10.57 0 0 0 13.34 1.32l27.36-18.24a10.62 10.62 0 0 1 10.4-0.75q4.22 2 8.63 3.58a10.62 10.62 0 0 1 6.81 7.88l6.45 32.24a10.57 10.57 0 0 0 10.37 8.5h25a10.57 10.57 0 0 0 10.37-8.5l6.45-32.24a10.62 10.62 0 0 1 6.81-7.88q4.41-1.6 8.63-3.58a10.62 10.62 0 0 1 10.4 0.75l27.36 18.24a10.57 10.57 0 0 0 13.34-1.32l17.64-17.64a10.57 10.57 0 0 0 1.32-13.34l-18.24-27.36a10.62 10.62 0 0 1-0.75-10.4q2-4.22 3.58-8.63a10.62 10.62 0 0 1 7.88-6.81l32.24-6.45a10.57 10.57 0 0 0 8.5-10.37v-25a10.57 10.57 0 0 0-8.5-10.37z m-94.65 67.69A63.43 63.43 0 1 1 851.43 780a63 63 0 0 1-18.58 44.85z" p-id="11263"></path></svg>