<?xml version="1.0" standalone="no"?><!DOCTYPE svg PUBLIC "-//W3C//DTD SVG 1.1//EN" "http://www.w3.org/Graphics/SVG/1.1/DTD/svg11.dtd"><svg t="1553595420218" class="icon" style="" viewBox="0 0 1024 1024" version="1.1" xmlns="http://www.w3.org/2000/svg" p-id="1128" xmlns:xlink="http://www.w3.org/1999/xlink" width="200" height="200"><defs><style type="text/css"></style></defs><path d="M512 0c-282.784 0-512 71.648-512 160l0 128c0 88.352 229.216 160 512 160s512-71.648 512-160l0-128c0-88.352-229.216-160-512-160z" p-id="1129"></path><path d="M512 544c-282.784 0-512-71.648-512-160l0 192c0 88.352 229.216 160 512 160s512-71.648 512-160l0-192c0 88.352-229.216 160-512 160z" p-id="1130"></path><path d="M512 832c-282.784 0-512-71.648-512-160l0 192c0 88.352 229.216 160 512 160s512-71.648 512-160l0-192c0 88.352-229.216 160-512 160z" p-id="1131"></path></svg>