<?xml version="1.0" standalone="no"?><!DOCTYPE svg PUBLIC "-//W3C//DTD SVG 1.1//EN" "http://www.w3.org/Graphics/SVG/1.1/DTD/svg11.dtd"><svg t="1551149273111" class="icon" style="" viewBox="0 0 1024 1024" version="1.1" xmlns="http://www.w3.org/2000/svg" p-id="1346" xmlns:xlink="http://www.w3.org/1999/xlink" width="200" height="200"><defs><style type="text/css"></style></defs><path d="M778.744 958.002c-79.087 0-163.144-22.408-250.03-66.616-80.047-40.766-159.093-99.1-228.629-168.725-69.582-69.67-127.83-148.843-168.55-228.914-44.12-86.867-66.529-170.991-66.529-250.054 0-51.251 47.783-100.756 68.273-119.657 29.512-27.18 75.949-58.92 109.692-58.92 16.782 0 36.448 10.987 61.91 34.55 19.01 17.593 40.372 41.442 61.734 68.929 12.904 16.611 77.257 101.388 77.257 142.065 0 33.353-37.756 56.567-77.652 81.069-15.434 9.461-31.344 19.294-42.9 28.537-12.335 9.853-14.514 15.085-14.863 16.238 42.377 105.662 171.863 235.148 277.497 277.481 0.918-0.306 6.103-2.397 16.18-14.866 9.24-11.51 19.05-27.51 28.55-42.9 24.503-39.936 47.697-77.65 81.056-77.65 40.67 0 125.424 64.309 142.08 77.212 27.467 21.406 51.317 42.814 68.883 61.78 23.592 25.417 34.578 45.123 34.578 61.909 0 33.744-31.74 80.306-58.905 109.952-18.922 20.622-68.45 68.624-119.671 68.624l0.039-0.044zM242.75 109.76c-11.986 0.217-44.16 14.865-79.126 47.105-33.223 30.63-53.888 63.871-53.888 86.828 0 300.389 368.926 669.663 669.007 669.663 22.934 0 56.155-20.75 86.76-54.147 32.309-35.183 46.96-67.49 47.174-79.522-1.435-8.46-24.938-41.463-89.154-90.947-55.243-42.464-99.973-65.31-111.523-65.57-0.833 0.218-5.803 2.137-15.918 14.997-8.807 11.205-18.224 26.507-27.378 41.332-25.026 40.677-48.658 79.13-82.966 79.13-5.538 0-10.946-1.09-16.176-3.182C452.329 708.58 313.776 569.98 266.904 452.81c-5.62-14.058-6.493-36.12 21.149-61.212 14.737-13.341 35.093-25.854 54.846-37.994 14.824-9.112 30.17-18.529 41.332-27.359 12.857-10.134 14.776-15.149 14.997-15.934-0.309-11.533-23.107-56.308-65.572-111.524-49.486-64.243-82.487-87.674-90.946-89.157l0.041 0.13z" p-id="1347"></path></svg>