<?xml version="1.0" standalone="no"?><!DOCTYPE svg PUBLIC "-//W3C//DTD SVG 1.1//EN" "http://www.w3.org/Graphics/SVG/1.1/DTD/svg11.dtd"><svg t="1558664133931" class="icon" style="" viewBox="0 0 1024 1024" version="1.1" xmlns="http://www.w3.org/2000/svg" p-id="1099" xmlns:xlink="http://www.w3.org/1999/xlink" width="200" height="200"><defs><style type="text/css"></style></defs><path d="M482.647036 943.046285H175.181824c-55.567204 0-100.659442-43.595814-100.659441-97.267548V172.587546c0-53.671734 45.092237-97.267548 100.659441-97.267548v0.099762h660.720993c55.467443 0 100.55968 43.695575 100.55968 97.267548V564.650584h74.521906V172.687308c0-94.773508-78.612131-171.889215-175.181347-171.889215H175.181824C78.612608 0.897854 0.000477 77.9138 0.000477 172.687308v673.191191c0 94.673746 78.512369 171.789453 175.181347 171.789453h307.465212v-74.621667z m0 0" p-id="1100"></path><path d="M1008.490363 677.281416L473.269447 358.84243c-19.653033-11.672106-32.322754-2.893086-28.132767 19.553271l113.827971 616.027802c4.189987 22.446357 18.25637 25.538966 31.325138 6.883549 0 0 72.726197-104.250859 132.383627-167.898751l120.911043 180.069665c7.382357 10.973775 22.346596 13.866861 33.220609 6.28498l56.963866-39.405827c10.973775-7.581881 13.866861-22.745642 6.384742-33.819178l-120.711521-179.770381c76.517137-31.724185 184.558937-58.46029 184.558937-58.46029 22.047311-5.486887 24.042543-19.45351 4.489271-31.025854z" p-id="1101"></path></svg>