<?xml version="1.0" standalone="no"?><!DOCTYPE svg PUBLIC "-//W3C//DTD SVG 1.1//EN" "http://www.w3.org/Graphics/SVG/1.1/DTD/svg11.dtd"><svg t="1552012611582" class="icon" style="" viewBox="0 0 1024 1024" version="1.1" xmlns="http://www.w3.org/2000/svg" p-id="2594" xmlns:xlink="http://www.w3.org/1999/xlink" width="200" height="200"><defs><style type="text/css"></style></defs><path d="M630.719033 102.864048C581.993958 54.138973 441.232628 54.138973 393.280967 102.864048c-38.670695 38.670695-9.280967 242.851964 29.389728 281.522659s139.987915 38.670695 177.885196 0c38.670695-38.670695 68.060423-243.625378 30.163142-281.522659z m178.658611 334.114804c-42.537764-42.537764-151.589124-42.537764-194.126889 0-34.030211 34.030211-7.734139 198.767372 25.522659 232.797583 26.296073 26.296073 116.012085 26.296073 142.308157 0 34.030211-33.256798 60.326284-198.767372 26.296073-232.797583zM214.622356 417.643505c-34.030211 34.030211-7.734139 198.767372 25.522659 232.797583 26.296073 26.296073 116.012085 26.296073 142.308157 0 34.030211-34.030211 59.55287-198.767372 26.296073-232.797583-42.537764-42.537764-151.589124-42.537764-194.126889 0z" fill="#1ca538" p-id="2595"></path><path d="M712.700906 563.045317c-10.054381 0-17.78852 7.734139-17.788519 17.78852v82.755287c0 26.296073-21.655589 47.951662-47.951662 47.951661H533.268882V261.413897c0-12.374622-10.054381-22.429003-22.429003-22.429003-12.374622 0-22.429003 10.054381-22.429003 22.429003v416.096677H377.039275c-26.296073 0-47.951662-21.655589-47.951662-47.951662V534.429003c0-10.054381-7.734139-17.78852-17.788519-17.78852-10.054381 0-17.78852 7.734139-17.78852 17.78852v95.129909c0 45.63142 37.123867 83.528701 83.528701 83.528701h112.145015v259.093656H533.268882V747.117825h113.691843c45.63142 0 83.528701-37.123867 83.528701-83.528701V580.833837c0-10.054381-7.734139-17.78852-17.78852-17.78852" fill="#65320b" p-id="2596"></path></svg>