<?xml version="1.0" standalone="no"?><!DOCTYPE svg PUBLIC "-//W3C//DTD SVG 1.1//EN" "http://www.w3.org/Graphics/SVG/1.1/DTD/svg11.dtd"><svg t="1551171492078" class="icon" style="" viewBox="0 0 1024 1024" version="1.1" xmlns="http://www.w3.org/2000/svg" p-id="6130" xmlns:xlink="http://www.w3.org/1999/xlink" width="200" height="200"><defs><style type="text/css"></style></defs><path d="M437.248 472.405333c-131.072 6.144-237.226667 76.458667-237.226667 163.84 0 87.381333 106.154667 153.258667 237.226667 147.114667 131.072-6.144 237.568-88.064 237.568-175.786667C674.816 520.533333 568.661333 466.261333 437.248 472.405333L437.248 472.405333 437.248 472.405333zM526.677333 692.906667c-40.277333 51.882667-119.466667 77.141333-196.949333 35.498667C293.205333 708.266667 294.570667 669.013333 294.570667 669.013333s-15.36-123.562667 116.736-138.922667C543.402667 514.730667 566.954667 641.024 526.677333 692.906667L526.677333 692.906667 526.677333 692.906667zM438.272 609.962667c-8.533333 6.144-10.24 17.749333-5.461333 25.258667 4.437333 7.509333 14.677333 8.192 22.869333 2.048 8.192-6.485333 11.264-17.749333 6.826667-25.258667C458.069333 604.842667 448.170667 602.794667 438.272 609.962667L438.272 609.962667 438.272 609.962667zM375.808 627.029333c-24.576 2.389333-42.325333 23.893333-42.325333 44.714667 0 20.48 19.797333 34.816 44.373333 31.744 24.576-2.730667 44.373333-21.845333 44.373333-42.325333C422.570667 640.682667 404.138667 624.298667 375.808 627.029333L375.808 627.029333 375.808 627.029333zM845.824 35.84 181.248 35.84c-80.213333 0-145.408 65.194667-145.408 145.408l0 664.234667c0 80.213333 65.194667 145.408 145.408 145.408l664.234667 0c80.213333 0 145.408-65.194667 145.408-145.408L990.890667 181.248C991.232 101.034667 926.037333 35.84 845.824 35.84L845.824 35.84 845.824 35.84zM791.893333 665.941333c-53.930667 114.688-232.448 170.666667-364.544 160.426667-125.610667-9.898667-287.061333-51.541333-303.786667-203.434667 0 0-8.874667-68.949333 58.026667-157.696 0 0 95.914667-134.144 207.530667-172.373333 111.957333-37.888 124.928 26.282667 124.928 64.512-5.802667 32.426667-17.066667 51.2 24.917333 38.229333 0 0 109.909333-50.858667 155.306667-5.802667 36.522667 36.522667 6.144 86.698667 6.144 86.698667s-15.018667 16.725333 16.042667 22.869333C747.861333 505.514667 846.165333 550.912 791.893333 665.941333L791.893333 665.941333 791.893333 665.941333zM683.690667 348.501333c-11.946667 0-21.504-9.557333-21.504-21.504 0-11.946667 9.557333-21.845333 21.504-21.845333 0 0 134.826667-24.917333 118.784 119.808 0 0.682667 0 1.365333-0.341333 2.389333-1.365333 10.24-10.581333 18.090667-21.162667 18.090667-11.946667 0-21.845333-9.557333-21.845333-21.504C759.125333 423.936 780.288 327.338667 683.690667 348.501333L683.690667 348.501333 683.690667 348.501333zM911.36 464.554667 911.36 464.554667c-3.754667 24.576-16.042667 26.624-30.378667 26.624-17.408 0-31.402667-10.922667-31.402667-28.330667 0-15.018667 6.144-30.378667 6.144-30.378667 1.706667-6.485333 16.384-45.738667-9.557333-104.448-47.786667-80.554667-144.384-81.578667-155.989333-77.141333-11.605333 4.437333-28.330667 6.826667-28.330667 6.826667-17.408 0-31.402667-14.336-31.402667-31.402667 0-14.336 9.557333-26.624 22.869333-30.378667 0 0 0.341333-0.341333 0.682667-0.682667 1.024-0.341333 2.048-1.024 3.072-1.365333 13.312-2.730667 61.44-11.946667 107.861333-1.024C848.554667 212.309333 962.901333 292.864 911.36 464.554667L911.36 464.554667 911.36 464.554667zM911.36 464.554667" p-id="6131"></path></svg>