<?xml version="1.0" standalone="no"?><!DOCTYPE svg PUBLIC "-//W3C//DTD SVG 1.1//EN" "http://www.w3.org/Graphics/SVG/1.1/DTD/svg11.dtd"><svg t="1554090755048" class="icon" style="" viewBox="0 0 1024 1024" version="1.1" xmlns="http://www.w3.org/2000/svg" p-id="1155" xmlns:xlink="http://www.w3.org/1999/xlink" width="200" height="200"><defs><style type="text/css"></style></defs><path d="M704 128h-64V64H384v64h-64v128h384z" fill="" p-id="1156"></path><path d="M832 128h-64v192H258V128h-66c-70.7 0-128 57.3-128 128v576c0 70.7 57.3 128 128 128h640c70.7 0 128-57.3 128-128V256c0-70.7-57.3-128-128-128zM320.1 704h-64v-64h64v64z m0-192h-64v-64h64v64zM768 704H384v-64h384v64z m0-192H384v-64h384v64z" fill="" p-id="1157"></path></svg>